<svg xmlns="http://www.w3.org/2000/svg" viewBox="0 0 12 12"><path fill="currentColor" d="M1.01 11.63C0.92 11.17 0.79 11.05 0.34 11.01L0 10.98L0 5.99L0 1L0.34 1C0.61 1 0.7 0.97 0.83 0.84C0.98 0.69 1.06 0.45 1.06 0.15L1.06 0L5.99 0L10.92 0L10.96 0.32C11.03 0.78 11.25 1 11.68 1L12 1L12 5L12 9L11.73 9C11.36 9 11.18 9.11 11.02 9.43C10.83 9.8 10.7 9.93 10.42 10.05C10.24 10.12 10.14 10.21 10.03 10.44C9.87 10.76 9.61 11 9.43 11C9.25 11 9.02 11.33 8.98 11.68L8.93 12L5.01 12L1.08 12L1.01 11.63ZM7.81 9.83C8.13 9.5 8.13 8.5 7.81 8.17L7.63 8L5 8L2.37 8L2.19 8.17C1.87 8.5 1.87 9.5 2.19 9.83L2.37 10L5 10L7.63 10L7.81 9.83ZM7.45 5.83C7.9 5.63 7.97 5.38 7.97 3.94C7.97 2.91 7.96 2.75 7.84 2.53C7.62 2.09 7.41 2.03 6.06 2.03C5.43 2.03 4.8 2.05 4.68 2.08C4.12 2.2 3.96 2.71 4.01 4.28C4.07 5.91 4.18 6.01 6.12 5.98C7.02 5.96 7.2 5.94 7.45 5.83Z"/></svg>
