<svg xmlns="http://www.w3.org/2000/svg" viewBox="0 0 26 22"><g fill="currentColor" transform="translate(-1 -1)"><path fill-opacity="0.141" d="M13.9 22.9C13.7 22.8 13.3 22.6 13 22.5C12.4 22.3 12.3 22.2 12 21.9C11.9 21.7 11.6 21.4 11.4 21.3C11.3 21.3 11.1 21.1 11 21C10.9 20.7 10.6 20.4 10.4 20.4C10.3 20.4 10.2 20.4 10.1 20.3C10 20.3 9.9 20.1 9.8 19.9C9.6 19.5 9.6 19.5 9.4 19.4C8.9 19.3 8.8 19.2 8.6 19C8.4 18.6 8.2 18.4 7.7 18.3C7.4 18.3 7.3 18.2 7.1 18C6.6 17.6 6.7 17.7 4.5 17.7L2.5 17.7L2 17.5C0.7 17.1 0.7 17.1 0.6 16C0.5 14.7 0.6 8 0.7 7.6C0.9 7.1 1.1 6.9 1.7 6.6L2.2 6.3L4.6 6.3C7.3 6.3 7.2 6.3 7.4 6C7.6 5.8 7.9 5.6 8 5.6C8.2 5.6 8.5 5.4 8.6 5.1C8.8 4.8 8.9 4.6 9.3 4.6C9.6 4.5 9.7 4.4 9.9 4C10.1 3.8 10.1 3.7 10.3 3.6C10.6 3.6 10.7 3.4 10.9 3C11.1 2.7 11.1 2.6 11.7 2.6C12.4 2.5 12.4 2.5 12.6 2C12.8 1.7 12.9 1.6 13 1.5C13.1 1.5 13.4 1.3 13.7 1.2C14.5 0.8 14.7 0.8 15.4 1.5C15.9 2.1 16 2.3 16.2 2.9C16.3 3.3 16.4 6.3 16.3 8C16.3 9.4 16.3 14.4 16.3 16.1C16.3 16.8 16.3 18.4 16.3 19.5C16.3 22 16.3 22 15.7 22.3C15.5 22.4 15.3 22.5 15.1 22.7C14.7 23.1 14.3 23.1 13.9 22.9ZM21.4 21.4C20.7 21.2 20.5 20.8 20.7 19.8C20.8 19.1 20.9 18.8 21.3 18.7C21.5 18.7 21.5 18.6 21.6 18.3C21.8 17.5 21.8 17.5 22.1 17.3C22.5 17 22.5 17 22.7 16.2C22.7 16 23 15.7 23.3 15.6C23.4 15.6 23.5 15.6 23.6 15.5C23.6 15.5 23.6 14 23.6 12.2C23.6 8.5 23.6 8.7 23.1 8.3C23 8.2 22.8 8.1 22.7 7.9C22.5 7.3 22.5 7.3 22.1 7.2C21.7 7 21.6 6.9 21.7 6.5C21.8 5.7 21.7 5.4 21.2 5.4C20.9 5.3 20.7 5.1 20.7 4.7C20.6 3.7 20.8 3 21.4 2.7C21.8 2.5 23.1 2.5 23.5 2.7C24.1 3 24.2 3.2 24.3 3.7C24.3 4.4 24.4 4.6 24.7 4.6C25 4.7 25.1 4.9 25.3 5.3C25.4 5.6 25.5 5.7 25.6 5.8C26.2 6.2 26.4 6.5 26.4 7.5C26.4 7.9 26.4 8.3 26.4 8.4C26.4 8.6 26.5 8.7 26.6 8.9C27.4 9.7 27.5 10.5 27.3 14C27.2 14.9 27.2 14.9 26.8 15.3C26.6 15.5 26.5 16 26.4 16.7C26.3 17.5 26.2 17.9 25.7 18.2C25.5 18.3 25.4 18.4 25.4 18.7C25.2 19.1 25 19.3 24.7 19.4C24.4 19.4 24.4 19.5 24.2 20.2C24 20.6 23.4 21.3 23 21.4C22.7 21.4 21.8 21.4 21.4 21.4ZM17.9 18.3C17.6 18.2 17.6 18 17.6 16.8C17.6 15.5 17.7 15.3 18.2 14.9C18.3 14.8 18.5 14.7 18.5 14.7C18.6 14.6 18.7 13.8 18.7 13C18.8 12.5 18.8 11.9 18.9 11.8C19 11.5 18.9 11.5 18.8 11.1C18.7 10.8 18.6 10.6 18.7 10.4C18.7 9.9 18.6 9.3 18.3 9.2C17.7 8.8 17.6 8.4 17.6 7.3C17.6 5.8 17.7 5.6 19.3 5.6C20.2 5.6 20.2 5.6 20.4 6.3L20.5 6.7L20.9 6.9C21.3 7 21.4 7.1 21.3 7.7C21.3 8.3 21.4 8.6 21.7 8.6C22.4 8.8 22.4 8.7 22.4 12C22.4 15.1 22.4 15.1 22 15.3C21.7 15.4 21.6 15.7 21.4 16.3C21.3 16.8 21.2 16.8 20.8 17.1C20.5 17.3 20.4 17.4 20.3 17.8C20.2 18 20.1 18.2 20 18.3C19.8 18.4 18.1 18.4 17.9 18.3ZM12.6 17.4C12.7 17.3 12.7 17.1 12.6 16.7C12.5 16.2 12.6 7.6 12.7 6.9C12.8 6.2 12.1 6.2 11.8 6.9C11.6 7.2 11.5 7.3 11.1 7.4C10.7 7.4 10.5 7.6 10.4 7.9C10.3 8.2 10.1 8.3 9.9 8.4C9.7 8.5 9.5 8.7 9.2 9C9 9.4 8.8 9.4 8 9.4C7.5 9.4 7.2 9.5 6.9 9.6C6.4 9.7 5.8 9.8 5.3 9.7C4.7 9.5 4.2 9.7 4.2 10.1C4.3 10.4 4.3 13.6 4.2 13.9C4.2 14 4.3 14.1 4.4 14.2C4.6 14.4 4.6 14.4 6 14.3C7.5 14.3 7.5 14.3 8.1 14.5C8.9 14.7 8.9 14.7 9.1 15C9.3 15.4 9.4 15.5 9.8 15.6C10.1 15.6 10.2 15.8 10.4 16.1C10.5 16.4 10.7 16.6 11.1 16.6C11.5 16.7 11.6 16.7 11.8 17.1C12.1 17.6 12.1 17.6 12.4 17.6C12.5 17.6 12.6 17.6 12.6 17.4ZM10.8 15.4C10.6 15.2 10.9 14.9 11.2 15C11.3 15 11.3 15.3 11.2 15.4C11.1 15.4 10.9 15.5 10.8 15.4ZM27.8 8C27.8 7.7 27.8 7.6 27.9 7.6C28 7.6 28 7.7 28 8C28 8.3 28 8.4 27.9 8.4C27.8 8.4 27.8 8.3 27.8 8Z"/><path fill-opacity="0.068" d="M13.4 22.4C12.7 22.2 12.5 22 12.2 21.7C11.9 21.4 11.6 21.2 11.5 21.2C11.4 21.1 11.2 20.9 11.1 20.7C10.9 20.5 10.7 20.4 10.4 20.3C10.2 20.2 10 20 10 19.9C9.7 19.5 9.5 19.3 9.3 19.2C9.2 19.2 9 19.1 8.9 19C8.8 18.8 8.6 18.6 8.5 18.5C8.3 18.4 8.2 18.2 7.9 18.2C7.7 18.1 7.4 17.9 7.2 17.8C6.9 17.6 6.7 17.5 6.5 17.5C6.4 17.5 5.4 17.5 4.3 17.5C2.3 17.5 2.2 17.5 1.9 17.3C1.3 17.1 1.1 16.9 0.9 16.6L0.8 16.3L0.8 12.2L0.8 8L1 7.7C1.1 7.3 1.5 6.9 1.9 6.7C2.2 6.5 2.2 6.5 4.6 6.5C5.9 6.5 7 6.5 7 6.5C7.1 6.5 7.3 6.4 7.5 6.2C7.7 6 8 5.8 8.1 5.7C8.4 5.6 8.5 5.5 8.7 5.2C8.9 4.9 9 4.8 9.3 4.7C9.7 4.6 9.7 4.5 9.9 4.3C10.1 4.1 10.2 3.9 10.3 3.9C10.6 3.7 10.7 3.6 11 3.2C11.2 2.9 11.4 2.8 11.9 2.7C12.4 2.7 12.5 2.6 12.8 2C13.2 1.4 14.4 1.1 15 1.5C15.3 1.7 15.7 2.4 15.9 2.9L16 3.4L16 12.4C16 19.2 16 21.5 15.9 21.7C15.9 21.8 15.7 22 15.4 22.2C14.5 22.9 14.4 22.9 13.4 22.4ZM21.7 21.3C21.1 21.1 20.8 20.8 20.9 20.1C20.9 19.6 21 19.3 21.4 19C21.6 18.8 21.6 18.7 21.8 18.3C21.9 17.9 21.9 17.8 22.2 17.5C22.5 17.2 22.6 17.1 22.7 16.7C22.9 16.1 23.1 15.8 23.4 15.8C23.7 15.8 23.8 15.4 23.8 12.2C23.8 10.8 23.7 9.1 23.6 8.8C23.6 8.6 23.4 8.4 23.2 8.2C23.1 8 22.8 7.7 22.7 7.5C22.6 7.2 22.5 7 22.3 6.9C22.1 6.8 22 6.6 21.9 6C21.8 5.5 21.6 5.3 21.3 5.1C20.4 4.8 20.9 3 21.9 2.8C23 2.5 23.8 2.9 24.1 4C24.3 4.6 24.5 4.8 24.6 4.8C24.8 4.8 25 5.1 25.2 5.5C25.3 5.7 25.5 6 25.7 6.2C26.2 6.7 26.3 6.9 26.3 7.9C26.3 8.8 26.4 8.9 26.5 9.1C26.8 9.5 27.1 10.2 27.1 10.6C27.2 11.3 27.2 12.6 27.1 13.1C27 13.4 26.9 13.6 26.9 14.1C27 14.6 27 14.7 26.8 15C26.5 15.4 26.4 15.7 26.3 16.2C26.3 17 26.1 17.3 25.8 17.8C25.5 18 25.4 18.3 25.3 18.5C25.1 18.9 24.8 19.2 24.6 19.2C24.5 19.2 24.3 19.4 24.2 19.8C24.1 20 23.9 20.3 23.7 20.5C23.6 20.7 23.4 20.9 23.3 21C23.1 21.3 22.3 21.4 21.7 21.3ZM18.3 18.2C17.8 18 17.7 17.6 17.7 16.6C17.7 15.9 17.8 15.6 18.3 15.2C18.5 15 18.6 14.9 18.7 14.6C18.7 14.4 18.8 14 18.9 13.8C19.1 13.4 19.1 13.3 19 12.9C19 12.5 19 12.3 19.1 12C19.3 11.5 19.3 11.4 19.1 11C18.9 10.8 18.9 10.5 18.8 10.1C18.7 9.3 18.7 9.2 18.2 8.7C17.7 8.3 17.7 8 17.7 7.2C17.8 6.2 18.2 5.8 19.2 5.8C19.9 5.8 20 5.9 20.3 6.5C20.4 6.8 20.5 7 20.7 7.2C21 7.5 21.1 7.5 21.2 8C21.3 8.5 21.4 8.7 21.7 8.9C22.2 9.1 22.2 9.2 22.3 10.4C22.3 10.9 22.3 12.1 22.3 12.9C22.3 14.5 22.2 14.7 21.8 15.1C21.6 15.3 21.5 15.5 21.3 15.9C21.2 16.3 21.1 16.5 20.7 16.9C20.5 17.1 20.2 17.4 20.1 17.6C19.8 18.1 19 18.4 18.3 18.2ZM12.6 17.8C12.7 17.7 12.8 17.4 12.8 16.9C12.7 16.4 12.7 7.7 12.8 7.1C12.8 6.4 12.8 6.3 12.3 6.3C12.1 6.3 12 6.3 11.8 6.6C11.5 7 11.3 7.2 11.1 7.2C10.7 7.3 10.5 7.5 10.3 7.8C10.1 8 10 8.2 9.7 8.3C9.6 8.4 9.3 8.6 9.2 8.8C9 9.2 8.8 9.3 7.8 9.3C7.3 9.3 6.9 9.4 6.7 9.4C6.5 9.5 6.2 9.5 5.6 9.5C3.9 9.4 4 9.3 4 12C4 14.8 3.8 14.6 6 14.5C8 14.5 8.6 14.6 9.1 15.3C9.3 15.5 9.3 15.6 9.7 15.7C10 15.8 10.1 15.9 10.3 16.2C10.5 16.5 10.8 16.7 11 16.7C11.2 16.8 11.5 16.9 11.7 17.2C11.9 17.6 12.1 17.8 12.3 17.8C12.3 17.8 12.4 17.9 12.4 17.9C12.4 17.9 12.5 17.8 12.6 17.8Z"/><path fill-opacity="0.108" d="M13.5 22.3C12.9 22.1 12.5 21.8 12.2 21.5C12.1 21.4 11.9 21.2 11.7 21.1C11.4 20.9 11.2 20.7 11.1 20.6C11 20.5 10.8 20.3 10.5 20.2C10.2 20 10.1 19.9 10 19.7C9.8 19.4 9.6 19.3 9.3 19.1C9.1 19 8.9 18.8 8.8 18.6C8.6 18.4 8.4 18.3 8 18C7.7 17.9 7.3 17.7 7.1 17.5L6.7 17.3L4.5 17.3L2.2 17.3L1.7 17.1C1.3 16.9 1.2 16.8 1.1 16.5L0.9 16.2L0.9 12.1L0.9 8.1L1.1 7.7C1.3 7.3 1.7 7 2.1 6.8C2.3 6.7 2.5 6.7 4.7 6.7C7.4 6.7 7.3 6.7 7.7 6.2C7.8 6.1 8 5.9 8.2 5.8C8.4 5.8 8.6 5.6 8.7 5.5C9 5 9.1 4.9 9.4 4.8C9.7 4.7 9.9 4.6 10.1 4.3C10.1 4.2 10.3 4 10.5 3.9C10.6 3.8 10.8 3.6 11 3.4C11.3 3 11.4 2.9 11.9 2.8C12.4 2.8 12.5 2.7 12.8 2.3C13.1 1.8 13.2 1.8 13.7 1.6C14.6 1.3 15.1 1.5 15.5 2.4C15.8 3 15.8 2.7 15.8 12.5C15.8 22.6 15.9 21.7 15.3 22.1C14.6 22.6 14.4 22.7 13.5 22.3ZM21.9 21.2C21.3 21.1 21 20.7 21 20.2C21 20 21.2 19.4 21.4 19.3C21.6 19 21.7 18.9 21.8 18.4C21.9 18.1 22 17.9 22.3 17.7C22.6 17.3 22.7 17.2 22.8 16.7C22.9 16.3 23.2 15.9 23.4 15.9C23.4 15.9 23.5 15.9 23.6 15.8C23.8 15.6 23.8 15.6 23.8 14.8C23.8 14.3 23.8 13.8 23.9 13.6C24 12.9 24 11.7 23.9 11.1C23.9 10.8 23.8 10.2 23.8 9.7C23.7 8.6 23.7 8.5 23.3 8.1C23.2 8 23 7.7 22.9 7.4C22.8 7.2 22.6 6.9 22.4 6.8C22.2 6.5 22.1 6.3 22 5.9C21.8 5.4 21.6 5.1 21.4 5C20.7 4.7 21 3.2 21.9 2.9C22.1 2.8 22.8 2.8 23.1 2.9C23.4 3 23.9 3.6 24 4C24.2 4.6 24.4 4.8 24.6 5C24.8 5.1 25 5.3 25.2 5.6C25.3 5.9 25.5 6.2 25.7 6.4C26.1 6.8 26.2 7.1 26.2 8L26.2 8.8L26.5 9.4C27 10.4 27 10.6 27 11.8C27 12.6 27 12.8 26.9 13.1C26.8 13.4 26.7 13.6 26.8 14C26.8 14.6 26.8 14.6 26.5 15.1C26.4 15.5 26.3 15.8 26.3 16.1C26.2 17 26.1 17.2 25.6 17.8C25.5 17.9 25.3 18.1 25.2 18.4C25 18.8 24.9 19 24.5 19.2C24.4 19.3 24.3 19.4 24.1 19.7C24 19.9 23.8 20.2 23.7 20.3C23.6 20.4 23.4 20.6 23.3 20.8C23.1 21.1 22.5 21.3 21.9 21.2ZM18.4 18.1C17.6 17.8 17.5 16.2 18.3 15.4C18.6 15.1 18.6 15 18.8 14.5C18.9 14.2 19 13.8 19.1 13.7C19.3 13.4 19.3 13.4 19.2 12.9C19.2 12.5 19.2 12.3 19.3 12.1C19.5 11.6 19.5 11.4 19.2 10.9C19.1 10.6 19 10.3 18.9 10C18.8 9.3 18.7 9 18.3 8.6C17.9 8.2 17.8 8 17.8 7.4C17.8 6.4 18.3 5.9 19.2 5.9C19.7 5.9 19.9 6 20.2 6.7C20.4 7 20.5 7.2 20.6 7.3C20.8 7.4 21 7.8 21.2 8.3C21.3 8.7 21.4 8.9 21.7 9.1C22 9.2 22 9.5 22.1 10.4C22.3 11.8 22.3 12.1 22.2 13.1C22.1 14.4 22.1 14.5 21.7 14.9C21.6 15.1 21.4 15.5 21.3 15.7C21.1 16.1 20.7 16.8 20.6 16.8C20.5 16.8 20.3 17 20.2 17.3C19.7 18 19.1 18.3 18.4 18.1ZM12.7 17.9C12.8 17.8 12.8 17.4 12.8 12.4C12.9 9.4 12.9 6.8 12.9 6.7C12.9 6.3 12.8 6.1 12.4 6.1C12.1 6.2 12 6.2 11.7 6.5C11.4 6.9 11.3 7 10.8 7.2C10.6 7.3 10.4 7.4 10.2 7.7C10.1 7.8 9.8 8.1 9.7 8.2C9.5 8.4 9.2 8.6 9.1 8.8C8.8 9.1 8.6 9.2 8 9.2C7.7 9.2 7.2 9.2 6.9 9.3C6.5 9.4 6.1 9.4 5.5 9.3C4.7 9.3 4.6 9.3 4.3 9.4C3.8 9.6 3.8 9.7 3.8 12C3.8 14.9 3.6 14.7 6.1 14.7C8.3 14.7 8.5 14.7 9.1 15.5C9.2 15.7 9.4 15.8 9.5 15.8C9.8 15.8 10 16 10.2 16.3C10.4 16.6 10.6 16.7 10.8 16.8C11.4 17 11.4 17.1 11.7 17.4C12.1 18 12.5 18.2 12.7 17.9Z"/><path fill-opacity="0.198" d="M13.8 22.3C13.1 22.1 12.8 21.9 12.4 21.6C12.2 21.4 11.9 21.2 11.8 21C11.6 20.9 11.3 20.7 11.2 20.5C11.1 20.4 10.8 20.2 10.6 20.1C10.3 19.9 10.1 19.8 9.9 19.4C9.8 19.3 9.6 19.1 9.4 19C9.2 18.9 9 18.7 8.8 18.5C8.6 18.3 8.5 18.1 8.2 18C8 17.9 7.7 17.7 7.5 17.6C6.9 17.2 6.9 17.2 4.6 17.2C2 17.3 1.7 17.2 1.3 16.6C1 16.2 1 16 1 12.1L1 8.3L1.1 7.9C1.4 7.5 1.7 7.1 2 6.9C2.3 6.8 2.3 6.8 4.6 6.8C5.9 6.8 7.1 6.8 7.1 6.8C7.3 6.8 7.4 6.7 7.6 6.4C7.8 6.3 8.1 6 8.3 5.9C8.5 5.8 8.7 5.6 8.7 5.5C9 5.2 9.2 4.9 9.5 4.9C9.7 4.8 9.8 4.7 10 4.5C10.2 4.3 10.4 4.1 10.5 4C10.7 3.9 10.9 3.7 11 3.5C11.4 3.1 11.4 3 12 2.9C12.5 2.8 12.7 2.7 12.9 2.3C13.2 1.8 14 1.5 14.6 1.6C14.9 1.7 15.3 2.1 15.4 2.6L15.6 3L15.6 12.2C15.7 22.7 15.7 21.7 15.1 22.1C14.6 22.5 14.3 22.5 13.8 22.3ZM21.8 21.1C21.1 20.9 21 20 21.5 19.3C21.6 19.2 21.7 18.9 21.8 18.7C22 18.2 22 18.1 22.4 17.7C22.6 17.4 22.8 17.2 22.9 16.9C23.1 16.4 23.1 16.3 23.4 16.1C23.9 15.8 23.9 15.6 23.9 14.9C23.9 14.3 23.9 14 24 13.6C24.2 12.6 24.2 11.8 24.1 11.1C24 10.7 23.9 10.3 23.9 9.6C23.8 8.5 23.8 8.4 23.4 8C23.3 7.9 23.1 7.6 23 7.4C22.9 7.2 22.6 6.8 22.5 6.7C22.4 6.5 22.2 6.2 22.1 6.1C21.9 5.4 21.8 5.1 21.5 4.9C20.7 4.3 21.4 2.9 22.5 2.9C23.1 2.9 23.7 3.4 24.1 4.3C24.2 4.7 24.3 4.9 24.6 5.1C24.8 5.2 25 5.5 25.1 5.7C25.2 5.9 25.4 6.2 25.6 6.5C26.1 7 26.1 7.1 26.1 8.1C26.2 9 26.2 9 26.4 9.6C27 10.7 27.1 12.1 26.8 12.9C26.6 13.3 26.6 13.5 26.6 14.1C26.6 14.6 26.6 14.8 26.4 15C26.3 15.3 26.2 15.5 26.2 16.1C26.1 17 26 17 25.6 17.5C25.4 17.7 25.2 18 25.1 18.3C24.9 18.8 24.9 18.8 24.5 19.1C24.4 19.2 24.2 19.4 24.1 19.6C23.8 20.2 23.1 21 22.8 21.1C22.6 21.1 22 21.1 21.8 21.1ZM12.7 18.1C13 17.9 12.9 18 12.9 12.1C12.9 9 12.9 6.4 12.9 6.3C12.9 6.2 12.7 6 12.4 6C12.1 6 11.8 6.2 11.6 6.5C11.4 6.8 11.2 6.9 10.8 7.1C10.5 7.2 10.4 7.3 10 7.8C9.9 7.9 9.7 8.1 9.6 8.2C9.4 8.3 9.2 8.5 9.1 8.6C8.8 9 8.6 9.1 7.6 9.1C7.1 9.2 6.2 9.2 5.5 9.2C3.6 9.2 3.6 9.2 3.6 12C3.6 14.9 3.5 14.8 6.1 14.8C8.2 14.8 8.3 14.8 8.9 15.4C9.2 15.7 9.4 15.8 9.5 15.9C9.8 15.9 10 16.1 10.3 16.6C10.5 16.7 10.6 16.8 10.8 16.9C11.2 17 11.4 17.2 11.8 17.7C12.1 18.1 12.4 18.3 12.7 18.1ZM18.4 17.9C18 17.7 17.9 17.5 17.9 16.8C17.9 16.1 18 15.9 18.4 15.5C18.7 15.2 18.8 15 18.9 14.5C18.9 14.4 19.1 14 19.2 13.8L19.5 13.4L19.4 12.9C19.4 12.5 19.4 12.3 19.5 12.1C19.6 11.7 19.6 11.3 19.4 10.8C19.2 10.5 19.1 10.1 19 9.8C18.9 9.1 18.8 8.9 18.4 8.5C17.4 7.5 18 5.9 19.3 6C19.7 6 19.9 6.2 20.1 6.7C20.2 6.9 20.4 7.3 20.6 7.5C20.8 7.7 21 8 21.1 8.3C21.2 8.7 21.3 8.8 21.5 9.1C21.8 9.4 21.9 9.5 21.9 9.8C21.9 10 22 10.4 22 10.8C22.1 11.3 22.1 11.7 22.1 12.6C22.1 13.9 22 14.3 21.7 14.7C21.6 14.8 21.4 15.2 21.3 15.4C21.2 15.7 21 16 21 16C21 16.1 20.8 16.3 20.7 16.5C20.5 16.6 20.2 17 20 17.3C19.5 18 18.9 18.2 18.4 17.9Z"/><path fill-opacity="0.127" d="M13.7 22.2C13.5 22.1 13.2 22 13.1 21.9C12.8 21.7 11.5 20.7 11.3 20.5C11.2 20.4 10.9 20.2 10.7 20.1C10.5 20 10.3 19.8 10.2 19.7C9.8 19.2 9.7 19 9.4 18.9C9.3 18.9 9.1 18.7 8.9 18.5C8.7 18.3 8.5 18 8.2 17.9C8 17.8 7.7 17.6 7.5 17.5C7.1 17.1 6.9 17.1 4.5 17.1C1.8 17.1 1.6 17.1 1.3 16.3L1.1 16L1.1 12.1L1.1 8.3L1.3 7.9C1.5 7.5 1.9 7.1 2.2 7C2.3 6.9 2.9 6.9 4.8 6.9C7.5 6.9 7.4 6.9 7.8 6.4C7.9 6.3 8.2 6.1 8.3 6C8.5 5.8 8.7 5.7 8.8 5.6C9 5.2 9.3 5 9.5 4.9C9.7 4.9 9.9 4.8 10.1 4.6C10.2 4.4 10.5 4.2 10.6 4C10.8 3.9 11 3.7 11.1 3.5C11.3 3.2 11.7 3 12.1 3C12.5 2.9 12.7 2.7 13 2.3C13.4 1.6 14.6 1.5 15 2.1C15.5 2.7 15.5 2 15.4 11.7C15.4 17.5 15.5 20.4 15.5 20.7C15.6 21.3 15.5 21.6 15.2 21.9C14.7 22.3 14.4 22.4 13.7 22.2ZM21.9 21C21.3 20.8 21.1 20.1 21.6 19.4C21.7 19.2 21.9 18.9 21.9 18.6C22.1 18.2 22.1 18.1 22.4 17.8C22.7 17.5 22.8 17.3 22.9 17.1C23.1 16.6 23.2 16.4 23.5 16.1C23.9 15.8 24 15.5 24 14.9C23.9 14.4 24 14.2 24.1 13.7C24.4 12.6 24.4 11.9 24.2 11.2C24 10.6 23.9 10 23.9 9.2C23.9 8.5 23.9 8.4 23.5 7.9C23.3 7.7 23.1 7.4 23 7.2C22.9 7 22.7 6.7 22.5 6.5C22.4 6.3 22.2 5.9 22.1 5.7C22 5.3 21.8 5.1 21.6 4.9C21.3 4.6 21.2 4.4 21.3 4C21.5 3.4 21.9 3 22.5 3C23.1 3 23.6 3.5 24 4.4C24.2 4.8 24.3 4.9 24.5 5.1C24.6 5.3 24.8 5.5 25 5.8C25.1 6 25.4 6.4 25.5 6.6C26 7.1 26 7.1 26.1 8.2C26.1 9.1 26.1 9.1 26.4 9.7C26.7 10.5 26.8 10.8 26.8 11.8C26.8 12.6 26.8 12.7 26.6 13C26.5 13.3 26.5 13.4 26.5 14C26.5 14.5 26.4 14.7 26.3 15C26.2 15.2 26.1 15.5 26.1 16C26 16.8 25.9 17 25.6 17.4C25.3 17.7 25.2 17.9 25 18.4C24.9 18.7 24.8 18.8 24.5 19C24.3 19.1 24.2 19.3 24 19.6C23.7 20.1 23 20.9 22.7 21C22.4 21.1 22.2 21.1 21.9 21ZM12.8 18.1C13 17.9 13.1 17.6 13.1 17.2C13.1 17.1 13.1 14.7 13.1 12C13.1 6.2 13.1 6.4 13 6.1C12.7 5.7 12 5.8 11.5 6.5C11.3 6.7 11.2 6.8 10.8 7C10.6 7.1 10.3 7.3 10.2 7.4C9.9 7.9 9.7 8 9.5 8.1C9.4 8.2 9.2 8.4 9 8.5C8.6 9.1 8.7 9 5.9 9.1C3.4 9.1 3.4 9.1 3.4 12C3.4 14.9 3.4 14.9 6.2 14.9C8.3 14.9 8.4 14.9 8.9 15.5C9.1 15.8 9.3 15.9 9.5 15.9C9.7 16 9.9 16.2 10.2 16.6C10.3 16.7 10.6 16.9 10.8 17C11.2 17.2 11.4 17.3 11.6 17.7C12.2 18.3 12.5 18.5 12.8 18.1ZM18.6 17.9C17.8 17.6 17.7 16.3 18.4 15.6C18.7 15.4 18.8 15.1 19 14.5C19 14.3 19.2 14 19.3 13.8C19.6 13.4 19.6 13.4 19.6 12.8C19.6 12.5 19.6 12.2 19.7 12C19.8 11.6 19.8 11.4 19.5 10.8C19.3 10.5 19.2 10 19.1 9.7C19 9.1 18.8 8.7 18.4 8.4C17.8 7.8 17.8 6.8 18.5 6.3C19.2 5.9 19.7 6 20 6.8C20.1 7 20.4 7.4 20.5 7.5C20.8 7.8 20.9 8 21.1 8.6C21.1 8.8 21.3 9 21.4 9.2C21.7 9.5 21.8 9.8 21.8 10.1C21.8 10.2 21.9 10.6 21.9 10.9C22.2 12.2 22 14.4 21.5 14.8C21.4 14.8 21.3 15.1 21.1 15.5C21 15.9 20.8 16.1 20.6 16.4C20.4 16.6 20.1 16.9 19.9 17.2C19.5 17.8 19.1 18 18.6 17.9Z"/><path fill-opacity="0.145" d="M13.9 22.1C13.4 22 12.1 21.1 11.4 20.5C11.3 20.3 11 20.1 10.8 20C10.6 19.9 10.3 19.7 10.2 19.6C9.9 19.1 9.7 19 9.5 18.9C9.4 18.8 9.1 18.6 9 18.4C8.8 18.2 8.6 18 8.5 17.9C8.3 17.9 8 17.7 7.8 17.5C7.1 17 6.9 17 4.4 17C1.9 17 1.7 17 1.4 16.3C1.2 16 1.2 15.8 1.2 12.1L1.2 8.4L1.3 8.1C1.4 7.9 1.6 7.6 1.7 7.5C2.2 7 2 7 4.7 7C7.4 7 7.4 7 7.8 6.5C8 6.3 8.3 6.1 8.4 6C8.6 5.9 8.8 5.7 8.9 5.7C9.2 5.2 9.3 5.1 9.6 5C9.8 4.9 10 4.8 10.7 4.1C11.6 3.2 11.8 3.1 12.1 3.1C12.4 3.1 12.8 2.8 12.9 2.5C13.2 2.1 13.4 2 13.9 1.9C14.6 1.8 14.8 1.9 15.1 2.5L15.3 2.8L15.3 12.1C15.3 19.1 15.3 21.4 15.3 21.6C15.1 22 14.4 22.3 13.9 22.1ZM22 20.9C21.4 20.7 21.3 20.2 21.7 19.6C21.8 19.4 21.9 19.1 21.9 19.1C22.1 18.4 22.1 18.2 22.5 17.8C22.8 17.6 22.9 17.4 23 17.2C23.1 16.7 23.3 16.4 23.6 16.2C24 15.9 24.1 15.7 24.1 14.9C24.1 14.3 24.1 14.1 24.2 13.7C24.6 12.6 24.6 11.8 24.3 11C24.1 10.5 24.1 10.4 24.1 9.5C24 8.4 24 8.3 23.6 7.8C23.4 7.7 23.2 7.3 23.1 7.1C22.9 6.9 22.8 6.6 22.6 6.4C22.5 6.2 22.3 5.9 22.2 5.6C22 5.3 21.8 4.9 21.7 4.8C21.3 4.4 21.3 4.1 21.7 3.5C21.9 3.2 22.1 3 22.6 3.1C23.1 3.1 23.5 3.5 23.9 4.4C24.1 4.8 24.3 5.1 24.5 5.2C24.6 5.4 24.9 5.7 25 5.9C25.1 6.2 25.3 6.5 25.5 6.7C26 7.2 26 7.2 26 8.2L26 9L26.3 9.8C26.7 11.1 26.8 12.2 26.5 12.9C26.4 13.3 26.4 13.5 26.3 14.1C26.3 14.5 26.2 14.9 26.2 15C26.1 15.2 26 15.5 26 16C25.9 16.8 25.9 16.9 25.5 17.3C25.3 17.5 25.2 17.7 25 18.1C24.9 18.5 24.8 18.6 24.5 18.9C24.3 19 24.1 19.3 23.9 19.6C23.8 19.8 23.5 20.2 23.2 20.4C22.8 20.9 22.4 21.1 22 20.9ZM12.8 18.3C13.1 18.1 13.1 18.3 13.1 12.1C13.1 8.9 13.1 6.3 13.1 6.2C13.1 6.1 13.1 6 13 5.9C12.6 5.6 12 5.8 11.5 6.4C11.3 6.6 11 6.8 10.7 6.9C10.5 7 10.3 7.2 10.2 7.3C9.8 7.8 9.7 8 9.4 8.1C9.3 8.1 9.1 8.3 8.9 8.5C8.6 8.9 8.5 8.9 6.2 9C4 9 3.9 9 3.6 9.4C3.4 9.7 3.3 9.8 3.3 12C3.3 14.2 3.4 14.3 3.6 14.6C3.9 15 4 15 6.1 15C8.3 15 8.3 15 8.8 15.6C9 15.8 9.1 15.9 9.4 16C9.6 16.1 9.8 16.2 9.9 16.3C10 16.4 10.1 16.6 10.2 16.7C10.3 16.8 10.5 17 10.7 17.1C11 17.2 11.3 17.4 11.7 17.9C12.3 18.5 12.5 18.6 12.8 18.3ZM18.5 17.7C17.9 17.4 17.9 16.3 18.5 15.7C18.8 15.4 18.9 15.3 19 14.7C19.1 14.4 19.2 14.1 19.3 14C19.4 13.9 19.5 13.7 19.6 13.6C19.7 13.5 19.7 13.4 19.7 12.9C19.7 12.6 19.8 12.1 19.8 12C19.9 11.6 19.9 11.2 19.6 10.7C19.4 10.4 19.3 10 19.2 9.7C19 9 18.8 8.6 18.5 8.3C17.8 7.8 17.9 6.7 18.8 6.3C19.3 6 19.7 6.2 20 6.9C20.1 7.2 20.3 7.5 20.5 7.7C20.7 7.9 20.8 8.2 20.9 8.5C21 8.7 21.1 9 21.2 9.1C21.6 9.5 21.6 9.7 21.7 10C21.7 10.2 21.7 10.6 21.8 10.8C22 11.6 22 11.8 21.9 12.7C21.9 13.8 21.8 14.2 21.4 14.6C21.3 14.8 21.1 15.2 21.1 15.4C21 15.7 20.8 15.9 20.6 16.2C20.4 16.4 20.1 16.7 19.9 17C19.3 17.8 19 18 18.5 17.7Z"/><path fill-opacity="0.330" d="M13.8 22C13.5 21.9 13.4 21.8 12.5 21.2C12.2 20.9 11.7 20.6 11.5 20.4C11.4 20.2 11.1 20 10.9 19.9C10.6 19.8 10.4 19.7 10.3 19.6C9.9 19.1 9.8 18.9 9.6 18.8C9.4 18.7 9.2 18.5 9.1 18.4C8.9 18.1 8.8 18 8.3 17.7C8.1 17.6 7.8 17.4 7.6 17.3C7.2 16.9 7 16.9 4.6 16.9C2.2 16.9 2.1 16.9 1.7 16.6C1.3 16.2 1.3 16.2 1.3 12.1L1.3 8.3L1.4 8.1C1.7 7.6 1.9 7.3 2.2 7.2C2.4 7.1 2.6 7.1 4.9 7.1C7.7 7.1 7.6 7.1 7.9 6.6C8.1 6.4 8.3 6.2 8.5 6.1C8.7 6 8.9 5.8 9 5.6C9.2 5.3 9.3 5.2 9.6 5.1C9.9 5 10.1 4.9 10.8 4.2C11.7 3.3 11.7 3.2 12.1 3.2C12.6 3.1 12.8 3 13 2.6C13.3 2.1 13.5 2 14.1 2C14.6 1.9 14.7 2 15 2.5L15.2 2.8L15.2 11.7C15.2 16.5 15.2 20.7 15.2 20.9C15.3 21.8 14.6 22.3 13.8 22ZM21.8 20.8C21.4 20.5 21.4 20.1 21.8 19.6C21.9 19.4 22 19.2 22 19C22.1 18.5 22.3 18.2 22.5 18C22.8 17.8 23 17.6 23.1 17.1C23.2 16.7 23.3 16.6 23.6 16.3C24.1 15.9 24.1 15.8 24.1 15C24.1 14.4 24.1 14.3 24.3 13.7C24.5 13.3 24.6 12.8 24.6 12.4C24.7 11.8 24.7 11.8 24.3 10.8C24.2 10.4 24.2 10.1 24.1 9.5C24.1 8.3 24.1 8.3 23.7 7.9C23.5 7.6 23.3 7.3 23.2 7.1C23 6.8 22.8 6.5 22.7 6.4C22.5 6 22.4 5.8 22.2 5.3C22.1 5.1 22 4.9 21.8 4.8C21.4 4.3 21.4 3.9 21.9 3.4C22.5 2.8 23.3 3.2 23.9 4.5C24 4.8 24.2 5.1 24.4 5.3C24.5 5.4 24.7 5.7 24.9 6C25 6.2 25.2 6.6 25.4 6.8C25.6 7 25.8 7.2 25.8 7.2C25.8 7.2 25.8 7.7 25.9 8.2C25.9 9.2 25.9 9.2 26.2 9.9C26.6 11.1 26.7 12.2 26.4 12.9C26.3 13.3 26.2 13.5 26.2 14C26.2 14.4 26.1 14.8 26 15C26 15.2 25.9 15.5 25.9 15.7C25.9 16.5 25.8 16.8 25.5 17.2C25.2 17.5 25 17.8 24.8 18.3C24.8 18.4 24.6 18.7 24.4 18.8C24.1 19.1 23.9 19.3 23.8 19.5C23.7 19.7 23.6 19.9 23.5 20C23.3 20.1 23.2 20.3 23.1 20.4C22.8 20.9 22.3 21 21.8 20.8ZM12.8 18.5C12.9 18.4 13 18.2 13.1 18.1L13.3 17.7L13.3 11.9C13.2 7.2 13.2 6.1 13.2 5.9C12.9 5.3 12 5.6 11.3 6.3C11.2 6.6 11 6.7 10.7 6.9C10.3 7 10.2 7.1 10.1 7.3C9.8 7.7 9.6 7.9 9.3 8C9.2 8.1 9 8.2 8.9 8.4C8.6 8.9 8.5 8.9 6.2 8.9C3.1 8.9 3.2 8.8 3.2 12C3.2 15.2 3.1 15.1 6.1 15.1C8.2 15.1 8.2 15.1 8.8 15.7C9 16 9.2 16.1 9.4 16.1C9.7 16.2 9.8 16.3 10.1 16.7C10.2 16.9 10.3 17 10.7 17.1C10.9 17.3 11.2 17.4 11.2 17.5C11.5 17.9 12.2 18.5 12.3 18.6C12.5 18.7 12.7 18.6 12.8 18.5ZM18.4 17.5C17.9 17.1 18 16.3 18.6 15.7C18.9 15.5 18.9 15.4 19.1 14.8C19.2 14.3 19.2 14.2 19.5 13.9C19.9 13.6 19.8 13.7 19.9 12.8C20 11.3 20 11.2 19.7 10.6C19.5 10.3 19.3 9.8 19.2 9.5C19.1 8.8 18.9 8.6 18.6 8.3C18 7.8 18 7 18.6 6.5C19.1 6.1 19.6 6.3 19.9 7C20 7.3 20.2 7.6 20.4 7.8C20.7 8 20.8 8.2 20.9 8.5C21 8.8 21.1 9.1 21.3 9.3C21.4 9.6 21.5 9.8 21.5 10C21.6 10.2 21.6 10.6 21.7 10.9C22 11.8 21.9 13.5 21.5 14.2C21.5 14.3 21.3 14.6 21.2 14.8C21.1 15 21 15.3 20.9 15.5C20.8 15.7 20.7 16 20.4 16.3C20.2 16.5 19.9 16.9 19.7 17.1C19.3 17.7 18.8 17.9 18.4 17.5Z"/><path fill-opacity="0.301" d="M13.8 21.8C13.6 21.7 13.3 21.6 13.2 21.4C13 21.3 12.6 21.1 12.4 20.9C12.1 20.8 11.8 20.5 11.6 20.3C11.4 20.1 11.2 19.9 11.2 19.9C10.9 19.9 10.4 19.6 10.2 19.3C10.1 19.1 9.9 18.9 9.7 18.8C9.5 18.7 9.3 18.4 9.1 18.2C9 18 8.8 17.8 8.6 17.7C8.4 17.6 8.1 17.4 7.9 17.3C7.4 16.8 7.5 16.9 4.7 16.8C1.9 16.8 2 16.8 1.7 16.4C1.4 16 1.4 15.8 1.4 12L1.4 8.4L1.5 8.1C1.6 8 1.8 7.7 2 7.5L2.3 7.2L4.8 7.2C7.8 7.2 7.7 7.2 8 6.7C8.2 6.4 8.3 6.3 8.5 6.2C8.8 6 8.9 5.9 9.1 5.7C9.3 5.3 9.4 5.2 9.8 5.2C10 5.1 10.2 5 10.4 4.7C10.5 4.6 10.7 4.4 10.8 4.3C11 4.1 11.2 3.9 11.3 3.8C11.6 3.5 11.9 3.3 12.2 3.2C12.7 3.2 12.9 3 13.1 2.7C13.4 2.2 13.5 2.1 14 2.1C14.5 2 14.7 2.1 14.9 2.5C15 2.8 15 3 15 11.6C15 18 15 20.5 15.1 20.8C15.2 21.7 14.6 22.2 13.8 21.8ZM22 20.8C21.6 20.6 21.6 20.2 21.9 19.7C22 19.5 22.1 19.3 22.1 19C22.2 18.5 22.3 18.2 22.6 18C22.9 17.9 23 17.7 23.2 17.3C23.3 16.8 23.5 16.6 23.8 16.3C24.2 16.1 24.3 15.8 24.2 15C24.2 14.3 24.3 14.2 24.4 13.8C24.8 12.8 24.9 11.8 24.7 11.2C24.3 10.5 24.3 10.4 24.2 9.3C24.2 8.2 24.2 8.1 23.7 7.7C23.6 7.5 23.3 7.1 23.2 6.9C23.1 6.6 22.9 6.3 22.8 6.2C22.5 5.9 22.4 5.7 22.3 5.3C22.2 5.1 22.1 4.8 21.9 4.6C21.2 3.7 22.4 2.7 23.2 3.6C23.3 3.8 23.4 3.9 23.5 3.9C23.5 4 23.8 4.5 23.9 4.8C23.9 4.9 24.1 5.2 24.3 5.3C24.4 5.5 24.7 5.9 24.8 6.2C25.1 6.6 25.2 6.8 25.3 6.9C25.7 7.1 25.8 7.5 25.8 8.2C25.7 8.9 25.8 9.5 26.2 10.3C26.6 11.3 26.6 12.3 26.3 13C26.1 13.3 26.1 13.5 26 14C26 14.3 26 14.7 25.9 14.9C25.8 15.1 25.8 15.5 25.8 15.8C25.8 16.6 25.7 16.9 25.3 17.1C25.1 17.3 25 17.5 24.9 17.9C24.8 18.4 24.6 18.5 24.3 18.8C24.1 18.9 24 19.1 23.8 19.4C23.7 19.6 23.5 19.9 23.4 19.9C23.3 20 23.2 20.2 23.1 20.4C22.8 20.7 22.4 20.9 22 20.8ZM12.9 18.7C13 18.6 13.1 18.4 13.2 18.2L13.3 17.9L13.4 12C13.4 7.9 13.4 6 13.3 5.8C13.1 5.1 12.2 5.3 11.3 6.2C11 6.5 10.8 6.7 10.6 6.8C10.2 6.9 10.1 7 9.9 7.3C9.8 7.6 9.5 7.9 9.3 7.9C9.3 7.9 9 8.1 8.8 8.3L8.4 8.8L7.9 8.8C7.7 8.8 6.7 8.8 5.7 8.8C3 8.9 3 8.8 3 12C3 15.2 2.9 15.1 6 15.2C8.2 15.2 8.2 15.2 8.7 15.7C9 16.1 9.1 16.1 9.3 16.2C9.6 16.2 9.8 16.4 10 16.8C10.1 16.9 10.2 17.1 10.5 17.2C10.8 17.3 11 17.5 11.5 18C12.3 18.8 12.6 19 12.9 18.7ZM18.6 17.5C18.1 17.2 18.1 16.2 18.6 15.9C18.9 15.8 19.1 15.5 19.1 15C19.2 14.5 19.4 14.1 19.6 14C19.9 13.9 20 13.7 20 12.9C20.1 11.3 20.1 11.2 19.8 10.5C19.6 10.1 19.4 9.6 19.3 9.3C19.2 8.7 19.1 8.5 18.8 8.3C18.3 7.8 18.2 7.8 18.2 7.4C18.2 7 18.4 6.8 18.7 6.6C19.2 6.3 19.5 6.4 19.8 7.2C20 7.6 20.1 7.7 20.3 7.8C20.5 8 20.7 8.3 20.9 8.8C20.9 9 21 9.2 21.1 9.4C21.3 9.6 21.4 9.9 21.4 10.2C21.5 10.4 21.6 10.8 21.6 11C22 11.9 21.8 13.6 21.3 14.4C21.1 14.6 21 15 20.9 15.2C20.8 15.7 20.6 16 20.4 16.1C20.3 16.2 20 16.5 19.8 16.8C19.3 17.5 19 17.7 18.6 17.5Z"/><path fill-opacity="0.294" d="M13.9 21.7C13.8 21.7 13.5 21.5 13.3 21.3C13 21.1 12.6 20.9 12.5 20.8C12.3 20.7 12 20.5 11.7 20.2C11.4 19.9 11.3 19.8 11.1 19.8C10.7 19.7 10.5 19.5 10.3 19.2C10.1 19 10 18.8 9.8 18.7C9.5 18.5 9.4 18.4 9.2 18.1C9.1 17.9 9 17.8 8.7 17.6C8.5 17.5 8.2 17.3 8.1 17.2C7.6 16.7 7.6 16.7 4.8 16.7C2.1 16.7 2.2 16.7 1.8 16.4C1.5 16 1.5 16 1.5 12.1C1.5 8.1 1.5 8.3 1.9 7.8C2.3 7.2 2.1 7.3 4.9 7.3C7.7 7.3 7.7 7.3 8 7C8 6.8 8.2 6.7 8.2 6.6C8.3 6.4 8.4 6.3 8.6 6.3C8.9 6.2 8.9 6.1 9.1 5.9C9.3 5.4 9.4 5.3 9.7 5.3C10.1 5.2 10.3 5.1 10.5 4.8C10.6 4.7 10.8 4.5 10.9 4.4C11.1 4.3 11.3 4 11.4 3.8C11.7 3.5 11.8 3.4 12.3 3.3C12.8 3.2 13 3.1 13.1 2.8C13.4 2.3 13.5 2.3 14 2.2L14.5 2.2L14.6 2.4C14.9 2.6 14.8 1.4 14.8 11.6C14.8 19 14.8 20.3 14.9 20.7C15 20.9 15 21.2 15 21.2C14.8 21.7 14.5 21.9 13.9 21.7ZM21.9 20.6C21.7 20.4 21.8 20.1 22 19.7C22.2 19.5 22.3 19.4 22.3 19C22.3 18.5 22.4 18.2 22.7 18.2C22.9 18.1 23.2 17.8 23.3 17.5C23.4 16.9 23.5 16.7 23.8 16.5C24.3 16.1 24.3 16.1 24.3 15.1C24.3 14.3 24.4 14.2 24.5 13.9C24.8 13.4 25 12.5 25 12C25 11.6 25 11.5 24.7 11C24.4 10.3 24.3 10 24.3 9C24.3 8.1 24.3 8 23.8 7.5C23.5 7.2 23.4 7 23.3 6.7C23.2 6.5 23 6.2 22.8 6C22.6 5.8 22.5 5.6 22.4 5.2C22.3 4.9 22.2 4.6 22.1 4.5C21.8 4.2 21.8 4 21.9 3.7C22.2 3.2 22.7 3.2 23.1 3.7C23.2 3.9 23.4 4.1 23.5 4.1C23.5 4.2 23.7 4.5 23.7 4.7C23.9 5 24 5.2 24.2 5.5C24.4 5.7 24.6 5.9 24.7 6.2C24.9 6.7 25.1 7 25.4 7.1C25.7 7.2 25.7 7.4 25.7 8.6C25.7 9.5 25.7 9.7 25.9 10C26.3 11.1 26.3 11.3 26.4 11.8C26.4 12.4 26.4 12.4 26.2 12.9C26 13.3 25.9 13.5 25.9 13.9C25.8 14.3 25.8 14.7 25.7 14.9C25.7 15.1 25.7 15.4 25.7 15.7C25.8 16.4 25.7 16.7 25.4 16.9C25 17.1 24.9 17.2 24.8 17.6C24.7 18.3 24.6 18.5 24.2 18.7C24 18.9 23.9 19 23.7 19.3C23.6 19.6 23.5 19.8 23.4 19.8C23.3 19.9 23.1 20 23 20.2C22.9 20.4 22.8 20.5 22.7 20.6C22.5 20.7 22.1 20.7 21.9 20.6ZM13 18.8C13.1 18.7 13.2 18.4 13.3 18.1L13.5 17.6L13.5 11.6C13.5 5.2 13.5 5.3 13.2 5.2C12.8 5 11.5 5.7 11.1 6.2C11 6.5 10.7 6.6 10.2 6.8C10.1 6.8 10 7 9.9 7.2C9.7 7.5 9.5 7.7 9.3 7.8C9.1 7.8 8.8 8 8.7 8.3C8.5 8.7 8.4 8.7 6.2 8.7C5.1 8.7 4.1 8.7 3.9 8.8C2.9 8.9 2.8 9.3 2.8 12C2.8 15.4 2.7 15.3 5.9 15.3C8.2 15.3 8.1 15.3 8.6 15.9C8.9 16.2 9 16.2 9.2 16.3C9.6 16.3 9.7 16.4 9.9 16.8C10 17 10.1 17.2 10.2 17.2C10.6 17.4 10.9 17.5 11 17.7C11.2 17.9 12.2 18.9 12.4 19C12.6 19.1 12.8 19 13 18.8ZM18.5 17.3C18.2 16.9 18.3 16.3 18.7 16.1C19.1 15.8 19.2 15.7 19.2 15.1C19.3 14.4 19.4 14.3 19.7 14.2C20.1 13.9 20.1 13.8 20.2 12.7C20.3 11.4 20.3 11.1 20 10.6C19.6 9.8 19.5 9.6 19.4 9.2C19.2 8.4 19 8 18.6 8C18.2 7.8 18.2 7 18.8 6.7C19.2 6.4 19.5 6.6 19.7 7.3C19.9 7.7 20.1 8 20.4 8.1C20.5 8.1 20.6 8.4 20.8 8.9C20.8 9.1 21 9.4 21 9.6C21.1 9.8 21.2 10.1 21.3 10.3C21.3 10.5 21.4 10.8 21.5 11C21.9 11.6 21.7 13.8 21.2 14.2C21 14.3 20.9 14.5 20.9 14.9C20.8 15.4 20.6 15.7 20.4 15.9C20.1 16.1 20 16.2 19.7 16.7C19.3 17.4 18.8 17.6 18.5 17.3Z"/><path d="M13.4 21.2C13.1 20.9 12.8 20.7 12.7 20.7C12.4 20.6 12 20.3 11.9 20.1C11.7 19.7 11.6 19.7 11.2 19.6C10.7 19.5 10.5 19.4 10.4 19.1C10.3 18.8 10.3 18.7 9.9 18.6C9.5 18.4 9.4 18.2 9.4 17.9C9.4 17.7 9.2 17.6 8.9 17.5C8.5 17.4 8.3 17.1 8.2 16.9C8.2 16.8 8.1 16.7 8.1 16.7C8 16.6 6.7 16.6 5.2 16.6C2 16.5 2.1 16.6 1.8 16.1L1.7 15.9L1.6 12.3C1.6 8.7 1.6 8.4 1.8 8.2C1.9 8.1 2 8 2 7.9C2.3 7.4 2.1 7.4 5.2 7.4C6.8 7.4 8.1 7.4 8.1 7.4C8.1 7.3 8.2 7.2 8.2 7C8.3 6.6 8.4 6.5 8.6 6.4C9 6.3 9.1 6.3 9.2 6C9.4 5.5 9.4 5.4 9.7 5.4C10.2 5.4 10.5 5.3 10.6 5C10.7 4.8 10.9 4.6 11.1 4.5C11.3 4.3 11.5 4.1 11.6 4C11.8 3.6 12 3.5 12.4 3.4C13 3.3 13.1 3.3 13.2 2.9C13.4 2.5 13.4 2.4 14 2.4C14.6 2.4 14.7 2.5 14.7 3C14.7 3.1 14.7 7.1 14.7 11.8C14.6 19.6 14.6 20.4 14.7 20.7C14.9 21.3 14.7 21.6 14.2 21.6C13.9 21.6 13.9 21.6 13.4 21.2ZM22 20.5C21.9 20.3 21.9 20.1 22.2 19.8C22.4 19.5 22.4 19.5 22.4 19.1C22.4 18.5 22.4 18.4 22.8 18.3C23.1 18.3 23.3 18.1 23.3 17.9C23.5 17 23.5 17 23.7 16.8C23.9 16.7 24 16.6 24 16.6C24.1 16.6 24.2 16.6 24.3 16.5C24.4 16.3 24.4 16.3 24.4 15.3C24.5 14.4 24.5 14.3 24.6 14.2C24.7 14.1 24.8 13.8 24.9 13.6C24.9 13.4 25 13.2 25.1 13C25.4 12.4 25.3 11.1 24.9 10.8C24.6 10.5 24.5 10.2 24.4 8.9L24.4 7.7L24.2 7.5C23.6 7.1 23.5 6.8 23.4 6.5C23.3 6.1 23.2 6 22.8 5.6C22.7 5.6 22.6 5.4 22.5 5.1C22.5 4.7 22.4 4.6 22.2 4.4C22 4.1 21.9 3.8 22.2 3.6C22.4 3.3 22.8 3.4 23 3.8C23.1 4 23.2 4.2 23.4 4.3C23.6 4.5 23.6 4.6 23.7 4.9C23.8 5.3 23.8 5.4 24.1 5.7C24.5 6 24.5 6.1 24.6 6.5C24.8 6.9 24.9 7.1 25.2 7.3C25.6 7.4 25.6 7.5 25.6 8.5C25.5 9.6 25.6 10.3 25.9 10.9C26.3 11.7 26.3 12.4 26 12.8C25.9 12.9 25.8 13 25.7 13.1C25.7 13.3 25.6 15.1 25.6 15.8C25.6 16.4 25.6 16.7 25.3 16.7C25.2 16.7 24.8 16.9 24.7 17C24.7 17.1 24.6 17.3 24.6 17.6C24.6 18.2 24.5 18.4 24.1 18.6C23.8 18.7 23.8 18.8 23.7 19.2C23.5 19.5 23.5 19.6 23.3 19.6C23.1 19.7 23.1 19.8 22.9 20C22.9 20.2 22.7 20.4 22.7 20.5C22.6 20.6 22.2 20.6 22 20.5ZM13.2 19.2C13.2 19.2 13.3 18.9 13.4 18.5L13.6 17.9L13.6 11.9C13.7 8.7 13.7 5.8 13.7 5.6C13.8 5.2 13.7 5 13.4 4.8C13 4.5 12.6 4.6 12.1 5.2C11.9 5.3 11.6 5.5 11.5 5.6C11.3 5.7 11.2 5.8 11.1 6C10.9 6.3 10.7 6.5 10.4 6.6C10 6.6 9.9 6.7 9.8 7C9.7 7.4 9.6 7.5 9.4 7.6C9.3 7.6 9.1 7.6 9 7.7C8.8 7.7 8.8 7.8 8.6 8.1C8.4 8.6 8.4 8.6 6 8.6C4 8.6 2.8 8.6 2.7 8.8C2.6 8.8 2.6 15.2 2.7 15.2C2.8 15.4 4 15.4 5.8 15.4C8.1 15.4 8.1 15.4 8.4 15.9C8.6 16.3 8.8 16.4 9.2 16.4C9.6 16.5 9.7 16.5 9.8 16.9C9.9 17.3 10 17.3 10.3 17.4C10.6 17.5 10.9 17.7 11 18C11.1 18.2 11.2 18.3 11.3 18.3C11.6 18.4 11.6 18.5 11.9 18.9C12 19.1 12.1 19.2 12.2 19.2C12.3 19.3 13.1 19.3 13.2 19.2ZM18.6 17.2C18.3 17 18.4 16.3 18.7 16.3C19.2 16.3 19.4 16 19.4 15.2C19.4 14.6 19.4 14.4 19.6 14.4C19.9 14.4 20.2 14.2 20.3 13.9C20.4 13.6 20.5 11.4 20.4 11C20.3 10.6 20 9.9 19.9 9.9C19.8 9.9 19.6 9.5 19.5 8.8C19.3 8.1 19.2 7.9 18.9 7.8C18.5 7.7 18.4 7.6 18.4 7.4C18.4 7.2 18.5 7.1 18.8 6.9C19.2 6.7 19.4 6.8 19.6 7.5C19.7 8 19.9 8.2 20.2 8.3C20.5 8.4 20.6 8.6 20.7 9.2C20.7 9.6 20.7 9.8 20.8 9.9C21 10.1 21 10.2 21.1 10.7C21.1 10.8 21.2 11 21.3 11.1C21.7 11.5 21.7 12 21.4 13.2L21.3 13.8L21 13.9C20.8 14 20.7 14.1 20.7 14.1C20.7 14.2 20.7 14.5 20.7 14.8C20.7 15.4 20.5 15.7 20.3 15.7C20.1 15.7 19.8 16 19.6 16.4C19.6 16.6 19.4 16.8 19.2 17C18.9 17.3 18.8 17.3 18.6 17.2Z"/></g></svg>
