<svg xmlns="http://www.w3.org/2000/svg" viewBox="0 0 14 14"><path fill="currentColor" d="M6.4 13C6.33 12.97 6.21 12.87 6.13 12.78C6 12.61 6 12.56 6 10.49L6 8.37L5.82 8.18L5.63 8L3.51 8L1.38 8L1.17 7.82L0.97 7.64L0.97 7L0.97 6.36L1.17 6.18L1.38 6L3.51 6L5.63 6L5.82 5.82L6 5.63L6 3.51L6 1.38L6.18 1.17L6.36 0.97L6.99 0.97C7.6 0.97 7.63 0.98 7.8 1.14L7.97 1.32L8 3.56C8.03 5.7 8.04 5.81 8.16 5.98C8.38 6.27 8.45 6.29 8.92 6.14C9.31 6.01 9.46 6 10.98 6L12.62 6L12.83 6.18L13.03 6.36L13.03 7L13.03 7.64L12.83 7.82L12.62 8L11.14 8C9.34 8 9.32 8 9.02 7.36C8.91 7.13 8.75 6.9 8.66 6.84C8.51 6.74 8.49 6.74 8.34 6.84C8.01 7.06 8 7.15 8 10L8 12.62L7.82 12.83C7.64 13.03 7.62 13.03 7.08 13.05C6.78 13.05 6.47 13.04 6.4 13Z"/></svg>
