<svg xmlns="http://www.w3.org/2000/svg" viewBox="0 0 14 14"><path fill="currentColor" d="M1.12 12.89C1.02 12.8 0.98 12.71 0.98 12.51C0.98 12.18 1.13 11.95 1.47 11.81C1.8 11.66 1.83 11.62 2 11.16C2.08 10.96 2.22 10.71 2.32 10.6L2.5 10.41L2.65 10.58C2.74 10.67 2.83 10.9 2.87 11.09C2.96 11.52 2.89 11.71 2.52 11.95C2.33 12.08 2.23 12.21 2.12 12.47C2.05 12.66 1.92 12.86 1.85 12.91C1.67 13.04 1.29 13.02 1.12 12.89ZM6.84 12.94C6.44 12.84 6.31 12.74 6.1 12.41C5.95 12.17 5.78 12.01 5.57 11.89C5.39 11.79 5.17 11.6 5.07 11.46C4.97 11.32 4.76 11.1 4.6 10.97C4.44 10.84 4.21 10.6 4.09 10.43C3.97 10.26 3.73 10.03 3.56 9.93C3.38 9.81 3.23 9.66 3.18 9.55C3.06 9.27 2.83 9.01 2.55 8.87C2.42 8.8 2.23 8.63 2.12 8.48C2.02 8.34 1.78 8.09 1.58 7.93C1.27 7.69 1.21 7.6 1.11 7.28C0.95 6.77 0.99 6.34 1.21 6.14C1.38 6 1.4 6 2.97 6C4.76 6 4.69 6.02 4.99 5.47C5.12 5.23 5.23 5.12 5.47 5C5.71 4.88 5.82 4.77 5.97 4.5C6.12 4.23 6.22 4.12 6.47 4C6.71 3.88 6.82 3.77 6.97 3.5C7.13 3.21 7.21 3.13 7.51 2.99C8.01 2.75 8.03 2.69 7.98 1.21L7.94 0L8.57 0L9.19 0L9.19 0.22C9.19 0.55 9.3 0.73 9.64 0.95C9.82 1.06 10.03 1.27 10.13 1.42C10.22 1.57 10.43 1.78 10.6 1.89C10.77 2 11 2.23 11.11 2.39C11.22 2.56 11.44 2.78 11.61 2.89C11.77 3 12 3.23 12.11 3.4C12.22 3.56 12.44 3.79 12.6 3.89C12.75 3.99 12.95 4.2 13.04 4.35C13.21 4.65 13.4 4.77 13.77 4.84L14 4.88L14 5.47L14 6.06L12.73 6.02C11.5 5.98 11.46 5.99 11.3 6.12C11.2 6.2 11.06 6.39 10.98 6.55C10.88 6.77 10.77 6.88 10.58 6.97C10.24 7.13 10.14 7.24 9.97 7.57C9.88 7.77 9.76 7.88 9.57 7.97C9.24 8.13 9.14 8.24 8.97 8.57C8.87 8.79 8.77 8.88 8.51 9C8 9.25 8 9.24 8.01 11.01C8.02 12.38 8.01 12.56 7.92 12.71C7.74 12.98 7.34 13.07 6.84 12.94Z"/></svg>
