<svg xmlns="http://www.w3.org/2000/svg" viewBox="0 0 12 12"><g fill="currentColor" transform="translate(-1 -1)"><path fill-opacity="0.121" d="M1.9 13.4C1.5 13.3 0.9 12.8 0.7 12.3C0.6 12 0.5 9.8 0.6 8.9C0.7 8.1 0.8 7.9 1.2 7.7C1.6 7.5 1.7 7.5 1.6 6.7C1.6 5.9 1.7 5.7 2.3 5.6C2.5 5.6 2.5 5.6 2.8 5.2C3 4.7 3 4.7 3.3 4.6C3.6 4.5 3.7 4.4 3.9 4.2C4.1 4 4.3 3.9 4.4 3.8C4.8 3.6 4.7 3.4 4.2 3.3C4.1 3.3 4 3.2 3.9 3.1C3.7 2.5 3.6 2.5 3.2 2.4C2.3 2.3 2.1 2.1 2.3 1.4C2.3 1 2.4 0.8 2.7 0.7C2.9 0.6 10.5 0.5 10.9 0.6C11.3 0.7 11.4 0.9 11.4 1.5C11.4 2.2 11.2 2.4 10.6 2.4C10.4 2.4 10.2 2.7 10.1 3C10 3.2 9.9 3.3 9.6 3.4C9.3 3.4 9.3 3.8 9.6 3.9C9.6 3.9 9.8 4.1 10 4.3C10.2 4.4 10.4 4.6 10.5 4.6C10.6 4.6 10.7 4.6 10.8 4.7C11 4.7 11.1 4.8 11.5 5.2C11.6 5.4 11.8 5.6 11.9 5.7C12.3 5.8 12.4 6 12.4 6.6C12.5 7.3 12.6 7.6 12.9 7.8C13.2 7.9 13.3 8.2 13.4 8.9C13.5 9.9 13.4 12 13.3 12.2C13.1 12.6 12.4 13.3 12.1 13.4C11.7 13.4 2.3 13.5 1.9 13.4ZM7.8 11.1C7.9 10.9 8.1 10.6 8.2 10.6C8.3 10.6 8.7 10.2 8.7 10C8.7 9.8 8.9 9.6 9.3 9.6C9.6 9.5 9.8 9.3 9.8 9C9.8 8.7 9.6 8.4 9.4 8.4C9.2 8.4 8.9 8.3 8.9 8.2C8.7 7.6 8.6 7.5 8.3 7.4C8 7.4 7.9 7.3 7.8 7.2C7.2 6.5 7.2 6.6 7 6.7C6.9 6.9 6.8 6.9 6.9 7.3C6.9 8.2 6.5 8.5 5.2 8.4L4.4 8.4L4.3 8.6C4.2 8.9 4.2 9.1 4.3 9.4L4.4 9.6L5.2 9.6C6.1 9.5 6.4 9.6 6.7 10C6.9 10.2 6.9 10.3 6.8 10.5C6.6 11.2 6.8 11.6 7.3 11.5C7.6 11.5 7.6 11.5 7.8 11.1ZM8.1 9.2C7.9 8.9 8 8.7 8.2 8.7C8.4 8.7 8.5 8.9 8.4 9.2C8.3 9.4 8.1 9.4 8.1 9.2Z"/><path fill-opacity="0.087" d="M2 13.2C1.8 13.2 1.6 13 1.3 12.7C0.7 12.2 0.7 12.1 0.7 10.5C0.7 8.7 0.9 8.1 1.4 7.9C1.6 7.8 1.7 7.4 1.8 6.8C1.8 6.2 1.9 5.9 2.2 5.8C2.5 5.7 2.7 5.6 2.9 5.2C3 4.9 3.2 4.8 3.5 4.7C3.6 4.7 3.8 4.5 4 4.4C4.1 4.2 4.4 4 4.5 4C4.9 3.7 4.9 3.3 4.4 3.2C4.3 3.1 4.1 2.9 3.9 2.7C3.6 2.4 3.5 2.3 3.4 2.3C2.6 2.2 2.3 1.6 2.7 1C3 0.7 3.1 0.7 7.2 0.7L10.9 0.7L11.1 0.9C11.4 1.3 11.4 2 10.9 2.2C10.8 2.3 10.6 2.3 10.5 2.4C10.4 2.4 10.2 2.5 10.1 2.7C10 2.9 9.7 3.1 9.6 3.1C9.3 3.3 9.1 3.5 9.3 3.7C9.4 4 10.4 4.7 10.6 4.8C10.7 4.8 10.9 4.9 11.1 5.1C11.3 5.4 11.7 5.7 12 6C12.2 6.1 12.2 6.2 12.3 6.8C12.4 7.5 12.5 7.7 12.8 8C12.9 8.1 13 8.3 13.1 8.5C13.3 9 13.4 11.6 13.2 12.1C13 12.3 12.4 13 12.1 13.2C11.8 13.3 2.5 13.4 2 13.2ZM7.7 11.5C7.8 11.5 7.9 11.3 7.9 11.2C8 11 8.2 10.8 8.3 10.7C8.4 10.6 8.6 10.4 8.8 10.2C9 9.8 9.1 9.8 9.4 9.7C9.9 9.6 10.1 8.9 9.7 8.5C9.6 8.4 9.5 8.3 9.4 8.3C9.3 8.3 9 8.1 8.8 7.8C8.7 7.4 8.6 7.4 8.3 7.3C8.1 7.2 7.9 7.1 7.7 6.8C7.2 6.2 6.7 6.4 6.6 7.3C6.5 8.1 6.2 8.3 5.3 8.3C4.9 8.3 4.5 8.3 4.5 8.4C4.2 8.5 4.1 9.1 4.3 9.4C4.4 9.7 4.5 9.7 5.4 9.7C6.3 9.7 6.6 10 6.6 10.6C6.6 11.4 6.8 11.6 7.3 11.6C7.5 11.6 7.6 11.6 7.7 11.5Z"/><path fill-opacity="0.128" d="M4.2 13.2C1.8 13.2 1.9 13.2 1.4 12.6C0.9 12.1 0.8 12 0.8 10.9C0.8 9.2 0.9 8.4 1.4 8C1.7 7.8 1.8 7.7 1.8 7C1.9 6.3 2 6.1 2.4 5.9C2.6 5.8 2.7 5.7 2.9 5.4C3.1 5.1 3.2 4.9 3.5 4.8C3.6 4.7 3.9 4.6 4 4.4C4.2 4.3 4.4 4.2 4.5 4.1C5 3.8 5 3.4 4.5 3.1C4.3 3 4.1 2.8 3.9 2.6C3.7 2.3 3.5 2.2 3.3 2.2C2.6 2 2.5 1.2 3.1 0.9C3.5 0.7 10.6 0.7 10.9 0.9C11.1 1.1 11.2 1.3 11.2 1.6C11.1 1.9 11 2.1 10.6 2.2C10.4 2.3 10.2 2.4 10 2.6C9.9 2.8 9.7 3 9.5 3.1C9 3.4 9 3.8 9.5 4.2C9.6 4.3 9.8 4.4 9.9 4.5C10.1 4.6 10.3 4.8 10.5 4.9C10.8 5 12.1 6.2 12.1 6.3C12.1 7 12.3 7.7 12.7 8.1C13.1 8.6 13.1 8.9 13.2 10.3C13.2 11.9 13.2 11.9 12.6 12.6C12.2 12.9 12 13.1 11.8 13.1C11.5 13.2 7.1 13.2 4.2 13.2ZM7.7 11.6C7.8 11.5 7.9 11.4 8 11.3C8 11.2 8.2 11 8.4 10.8C8.5 10.7 8.7 10.4 8.8 10.3C9 10.1 9.1 9.9 9.4 9.8C10.2 9.4 10.3 8.6 9.5 8.2C9.2 8.1 9.1 8 9 7.8C8.7 7.3 8.6 7.3 8.4 7.2C8.1 7.1 8 7 7.6 6.5C7.2 6.1 6.6 6.4 6.5 7.1C6.3 8 6.1 8.2 5.1 8.2C4.3 8.3 4.1 8.4 4.1 9C4.1 9.6 4.3 9.8 5.1 9.8C6.1 9.8 6.3 10 6.4 10.7C6.5 11 6.5 11.2 6.6 11.3C6.7 11.7 7.4 11.9 7.7 11.6Z"/><path fill-opacity="0.129" d="M6.2 13.1C5.9 13.1 4.8 13.1 3.9 13.1C2 13.1 2 13.1 1.5 12.5C0.9 11.9 0.8 11.7 0.9 10.1C1 8.8 1.1 8.5 1.5 8.1C1.8 7.7 1.9 7.7 1.9 6.9C2 6.3 2 6.3 2.6 5.9C2.7 5.8 2.9 5.6 3 5.4C3.1 5.1 3.3 5 3.6 4.9C3.8 4.8 4.1 4.6 4.2 4.5C4.4 4.3 4.6 4.1 4.7 4C5.1 3.7 5.1 3.4 4.7 3.1C4.5 3 4.2 2.7 4 2.5C3.7 2.3 3.5 2.1 3.3 2.1C2.8 1.9 2.7 1.3 3.2 1C3.5 0.9 10.6 0.9 10.8 1C11.3 1.2 11.1 2 10.6 2.1C10.5 2.2 10.2 2.4 9.9 2.6C9.7 2.8 9.4 3 9.3 3.1C9 3.3 8.9 3.5 9 3.8C9.2 4.1 9.8 4.6 10.3 4.9C10.6 5 10.9 5.3 11.4 5.7L12 6.4L12.1 6.9C12.2 7.6 12.2 7.7 12.6 8.2C13 8.7 13.1 9.2 13.1 10.6C13.1 11.8 13.1 11.9 12.6 12.5C12 13 12.1 13 9.8 13.1C8.7 13.1 7.6 13.1 7.4 13.1C7.2 13.2 6.6 13.2 6.2 13.1ZM7.8 11.6C7.9 11.4 8.2 11.1 8.4 10.9C8.6 10.7 8.9 10.4 9 10.3C9.1 10.2 9.3 10 9.5 9.9C10.3 9.4 10.3 8.6 9.6 8.1C9.3 8 9.2 7.9 9 7.6C8.8 7.3 8.7 7.2 8.4 7.1C8.2 7 8 6.8 7.8 6.6C7.2 5.9 6.6 6.1 6.4 7.2C6.3 7.6 6.2 7.7 6 7.9L5.8 8.1L5.2 8.1C4.3 8.1 4 8.3 4 9C4 9.7 4.3 9.9 5.2 9.9C6 9.9 6.2 10 6.4 10.9C6.5 11.5 6.7 11.8 7.3 11.8C7.6 11.8 7.6 11.8 7.8 11.6Z"/><path fill-opacity="0.190" d="M4.2 13C1.9 13 2.1 13 1.5 12.4C1 11.9 1 11.7 1 10.7C1 9.3 1.1 8.7 1.5 8.2C1.9 7.9 1.9 7.7 2 7.1C2 6.5 2.1 6.3 2.4 6.1C2.7 6 2.8 5.8 3 5.5C3.2 5.2 3.3 5.1 3.6 4.9C4 4.8 4.4 4.5 4.9 4C5.3 3.6 5.2 3.3 4.6 2.9C4.4 2.8 4.2 2.6 4.1 2.5C4 2.4 3.7 2.2 3.6 2.1C2.9 1.7 2.8 1.4 3.4 1.1C3.5 1 10.5 1 10.7 1C10.8 1.1 11 1.4 11 1.6C11 1.8 10.8 2 10.5 2.1C10.3 2.2 10.1 2.4 9.9 2.5C9.7 2.7 9.4 2.9 9.3 3C8.9 3.2 8.8 3.5 8.9 3.8C9 4 9.8 4.7 10.3 5C10.5 5.1 10.8 5.3 11.3 5.8C11.9 6.4 11.9 6.4 12 6.8C12.2 7.7 12.2 7.8 12.5 8.2C12.8 8.7 12.9 9.1 13 10.2C13 11.2 13 11.6 12.9 11.9C12.7 12.2 12 12.9 11.8 12.9C11.5 13 6.9 13 4.2 13ZM7.7 11.8C7.8 11.7 8 11.5 8.1 11.4C8.2 11.2 8.4 11 8.5 10.9C8.6 10.9 8.8 10.7 8.9 10.5C9.1 10.3 9.3 10.1 9.5 10C10 9.7 10.2 9.5 10.2 9C10.2 8.5 10.1 8.3 9.6 8.1C9.4 8 9.2 7.8 9 7.5C8.8 7.3 8.7 7.1 8.5 7C8.2 6.9 8.1 6.8 7.9 6.6C7.6 6.1 7.2 6 6.8 6.2C6.5 6.4 6.4 6.5 6.3 7.1C6.1 7.9 5.9 8.1 5 8.1C4.2 8.1 4 8.2 4 9C4 9.8 4.2 9.9 5.1 9.9C5.9 9.9 6.2 10.2 6.2 10.9C6.3 11.6 7.1 12.2 7.7 11.8Z"/><path fill-opacity="0.180" d="M6.6 13C6.5 13 5.6 12.9 4.5 12.9C2.2 12.9 2.1 12.9 1.6 12.4C1.1 11.9 1 11.7 1.1 10.5C1.2 9.1 1.3 8.6 1.6 8.3C1.9 8.1 2 7.7 2.1 7.2C2.1 6.5 2.2 6.5 2.6 6.1C2.7 6 3 5.7 3.1 5.5C3.3 5.2 3.4 5.2 3.7 5C4 4.9 4.4 4.6 5 4C5.5 3.6 5.3 3.2 4.6 2.8C4.5 2.7 4.2 2.5 4 2.4C3.9 2.2 3.6 2 3.5 2C3.1 1.8 3 1.5 3.3 1.2L3.4 1.1L6.7 1.1C8.5 1.1 10.1 1 10.3 1C10.6 1 10.9 1.2 10.9 1.5C10.9 1.8 10.8 1.9 10.4 2.1C10.2 2.2 10 2.3 9.9 2.4C9.8 2.5 9.5 2.7 9.3 2.8C8.8 3.2 8.6 3.4 8.8 3.8C8.9 4.1 9.7 4.8 10.2 5C10.6 5.2 11.7 6.2 11.8 6.5C11.9 6.6 11.9 6.9 12 7.2C12.1 7.7 12.1 7.9 12.4 8.4C12.8 8.8 12.8 9.1 12.9 10.3C13 11.6 13 11.7 12.4 12.3C11.8 12.9 11.8 12.9 9.9 12.9C9.1 12.9 8 12.9 7.5 13C7 13 6.6 13 6.6 13ZM7.8 11.8C7.9 11.7 8 11.5 8.2 11.4C8.3 11.2 8.5 11 8.6 10.9C8.7 10.9 8.9 10.7 9 10.5C9.1 10.3 9.3 10.2 9.6 10C10.5 9.5 10.5 8.5 9.6 8C9.4 7.9 9.3 7.7 9.1 7.5C8.9 7.2 8.7 7.1 8.5 7C8.3 6.9 8.1 6.7 7.9 6.5C7.6 6.1 7.4 6 6.9 6.1C6.5 6.2 6.3 6.4 6.2 7C6 7.8 5.8 8 4.9 8C4.4 8 4.3 8 4.2 8.1C3.9 8.4 3.8 9.2 4 9.7C4.2 10 4.2 10 5 10C5.9 10 6 10.1 6.2 10.9C6.3 11.5 6.3 11.5 6.6 11.8C7 12 7.5 12 7.8 11.8Z"/><path fill-opacity="0.274" d="M6.3 12.9C6 12.8 5 12.8 4.1 12.8C2.2 12.8 2.2 12.8 1.7 12.4C1.2 11.9 1.2 11.7 1.2 10.8C1.2 9.4 1.3 8.9 1.7 8.3C2 8 2.1 7.7 2.1 7.4C2.1 6.8 2.2 6.5 2.6 6.2C2.7 6.1 3 5.8 3.1 5.6C3.3 5.4 3.4 5.2 3.8 5.1C4.2 4.8 4.8 4.4 5.2 4C5.6 3.6 5.5 3.2 4.8 2.8C4.6 2.7 4.3 2.5 4.1 2.3C4 2.2 3.7 2 3.5 1.9C3.4 1.8 3.3 1.6 3.3 1.6C3.3 1.4 3.5 1.2 3.6 1.2C6.8 1.1 10.6 1.2 10.7 1.3C10.9 1.5 10.8 1.8 10.4 2C10.2 2.1 10 2.2 9.8 2.4C9.7 2.5 9.4 2.7 9.2 2.8C8.7 3.1 8.6 3.2 8.6 3.5C8.6 3.9 9.3 4.7 10.1 5.1C10.9 5.5 11.9 6.6 11.9 7.1C11.9 7.5 12 7.9 12.3 8.3C12.7 8.9 12.7 9.2 12.8 10.3C12.9 11.6 12.9 11.7 12.3 12.3C12.1 12.5 11.9 12.7 11.8 12.7C11.7 12.8 10.8 12.8 9.7 12.8C8.6 12.9 7.6 12.9 7.3 12.9C7.1 12.9 6.6 12.9 6.3 12.9ZM7.7 11.9C7.8 11.9 8 11.7 8.2 11.5C8.3 11.3 8.5 11.1 8.6 11C8.8 11 9 10.8 9.1 10.6C9.2 10.4 9.4 10.3 9.6 10.1C10.2 9.8 10.4 9.6 10.4 9C10.4 8.5 10.2 8.2 9.7 7.9C9.4 7.8 9.3 7.6 9.1 7.4C8.9 7.1 8.8 7 8.6 6.9C8.3 6.8 8.2 6.7 8 6.4C7.7 6 7.5 5.9 7.1 6C6.4 6 6.2 6.3 6.1 7C6 7.8 5.9 7.8 5 7.9C4 7.9 3.7 8.2 3.8 9.2C3.9 9.9 4.1 10.1 5 10.1C5.8 10.1 6.1 10.3 6.1 11C6.1 11.7 7.1 12.3 7.7 11.9Z"/><path fill-opacity="0.310" d="M4.4 12.8C2.1 12.7 2.2 12.7 1.7 12.2C1.2 11.7 1.2 11.5 1.3 10.2C1.4 9.1 1.4 8.9 1.8 8.5C2.1 8.1 2.2 7.9 2.2 7.3C2.3 6.7 2.3 6.6 2.7 6.3C2.9 6.1 3.1 5.8 3.2 5.7C3.4 5.4 3.5 5.3 4 5.1C4.2 5 4.6 4.7 5.2 4.1C5.8 3.6 5.7 3.1 4.9 2.8C4.6 2.6 4.3 2.5 4.3 2.4C4.2 2.3 4 2.1 3.8 2C3.4 1.6 3.3 1.4 3.6 1.3C3.7 1.3 4.6 1.2 6.7 1.3C8.3 1.3 9.8 1.2 10 1.2C10.8 1.1 11 1.6 10.3 2C10.2 2 9.9 2.2 9.8 2.3C9.6 2.5 9.3 2.7 9 2.8C8.5 3 8.4 3.1 8.4 3.5C8.4 3.9 9.2 4.8 10 5.2C10.3 5.3 10.6 5.5 11 6C11.7 6.7 11.7 6.7 11.8 7.6C11.9 7.8 12 8 12.1 8.3C12.6 9 12.6 9.1 12.7 10.2C12.9 11.5 12.8 11.7 12.2 12.3C11.9 12.6 11.7 12.7 11.6 12.7C11.2 12.8 6.6 12.8 4.4 12.8ZM8.1 11.6C8.3 11.4 8.6 11.2 8.7 11.1C8.8 11.1 9 10.9 9.1 10.7C9.3 10.4 9.5 10.3 9.7 10.2C10.4 9.9 10.5 9.5 10.5 8.8C10.4 8.3 10.3 8.1 9.8 7.9C9.5 7.7 9.4 7.6 9.2 7.3C9.1 7.1 8.9 6.9 8.8 6.9C8.7 6.8 8.5 6.8 8.5 6.7C8.4 6.7 8.2 6.5 8.1 6.3C7.7 5.8 7.3 5.7 6.7 5.9C6.2 6.1 6 6.2 6 6.8C5.9 7.7 5.8 7.8 4.9 7.8C3.9 7.8 3.8 8 3.8 9C3.8 10 4 10.2 4.9 10.2C5.7 10.2 5.9 10.3 5.9 11C5.9 11.7 6.4 12.1 7.3 12.1L7.7 12.1L8.1 11.6Z"/><path fill-opacity="0.517" d="M5.4 12.7C4.6 12.7 3.7 12.7 3.3 12.7C2.4 12.7 2.3 12.7 1.8 12.1C1.3 11.6 1.3 11.5 1.3 10.6C1.4 9.3 1.5 8.9 1.8 8.6C2.1 8.4 2.3 8 2.3 7.4C2.4 6.7 2.4 6.6 2.8 6.3C2.9 6.2 3.1 6 3.2 5.8C3.4 5.4 3.6 5.3 4 5.2C4.1 5.2 4.4 5 4.5 4.9C4.7 4.7 5.1 4.4 5.2 4.3C5.6 4 5.8 3.8 5.8 3.4C5.8 3 5.6 2.9 5.1 2.7C4.5 2.5 3.6 1.8 3.6 1.5C3.7 1.3 3.7 1.3 6.7 1.4C8.2 1.4 9.6 1.3 9.9 1.3C10.4 1.3 10.6 1.3 10.6 1.5C10.6 1.7 10.4 1.8 10.2 1.9C10.1 1.9 9.9 2.1 9.7 2.3C9.4 2.5 9.2 2.6 8.9 2.7C8.3 2.9 8.1 3.2 8.3 3.7C8.3 4 9.4 5 9.9 5.2C10.6 5.5 11.6 6.6 11.7 7C11.8 8 11.9 8.3 12.3 8.7C12.5 8.9 12.6 9.3 12.6 10.2C12.7 11.4 12.7 11.5 12.3 12C11.6 12.7 11.8 12.7 9.9 12.7C9 12.7 7.9 12.7 7.5 12.7C7.1 12.7 6.1 12.7 5.4 12.7ZM7.7 12.1C7.8 12 8 11.9 8.2 11.7C8.4 11.4 8.5 11.3 8.7 11.3C8.9 11.2 9 11.1 9.2 10.8C9.4 10.5 9.5 10.4 10.1 10.1C10.4 10 10.6 9.6 10.6 9.1C10.6 8.3 10.5 8 9.9 7.7C9.5 7.6 9.5 7.6 9.2 7.1C9 6.9 9 6.8 8.7 6.7C8.4 6.6 8.3 6.5 8.1 6.2C7.9 5.8 7.7 5.7 7.2 5.8C6.2 5.8 5.8 6 5.9 6.7C5.9 7.6 5.8 7.7 4.8 7.7C3.8 7.7 3.7 7.8 3.7 9C3.7 10.1 3.9 10.3 4.9 10.3C5.2 10.3 5.6 10.3 5.6 10.4C5.8 10.5 5.9 10.9 5.8 11.1C5.7 11.8 6.9 12.4 7.7 12.1Z"/><path d="M4.6 12.6C2.2 12.5 2.2 12.5 2 12.1C1.9 11.9 1.7 11.8 1.6 11.7C1.4 11.5 1.3 11.3 1.5 10.3C1.6 9.1 1.6 9.2 2 8.9C2.3 8.7 2.4 8.6 2.4 7.7C2.5 6.9 2.5 6.7 2.9 6.5C3 6.4 3.2 6.2 3.3 5.9C3.5 5.5 3.6 5.5 3.9 5.4C4.3 5.3 4.6 5.2 4.8 4.9C4.9 4.8 5.1 4.6 5.3 4.5C5.5 4.4 5.7 4.2 5.8 4.2C6.1 4 6.1 3.9 6.1 3.2C6.1 2.7 6 2.7 5.4 2.6C4.8 2.5 4.5 2.4 4.1 2C3.6 1.4 3.5 1.4 7.1 1.4C8.7 1.4 10.1 1.4 10.2 1.4C10.3 1.4 10.5 1.5 10.4 1.6C10.4 1.7 10.3 1.8 10.2 1.8C10.1 1.8 9.9 2 9.7 2.1C9.3 2.5 9.1 2.5 8.6 2.6C8.4 2.6 8.1 2.7 8 2.8L7.8 2.9L7.9 3.4C7.9 4 8 4.1 8.3 4.2C8.5 4.4 8.8 4.6 9.1 5C9.2 5.2 9.3 5.3 9.5 5.3C10 5.5 10.2 5.5 10.4 5.8C10.7 6.1 10.8 6.3 11.1 6.5C11.5 6.8 11.5 6.9 11.6 7.5C11.6 8.3 11.7 8.5 12.1 8.9C12.3 9.1 12.4 9.3 12.4 9.4C12.4 9.4 12.5 9.8 12.5 10.3C12.7 11.3 12.6 11.5 12.4 11.6C12.3 11.7 12.1 11.9 12 12C11.9 12.2 11.8 12.4 11.7 12.5C11.5 12.6 8.2 12.6 4.6 12.6ZM7.7 12.2C7.8 12.2 8 12 8.2 11.8C8.4 11.5 8.5 11.5 8.8 11.4C9.1 11.4 9.3 11.2 9.3 11C9.3 10.7 9.6 10.4 10.1 10.3C10.8 10.2 10.9 10 10.8 9C10.7 7.8 10.6 7.7 9.9 7.6C9.6 7.6 9.5 7.5 9.3 7.1C9.2 6.7 9.1 6.6 8.7 6.6C8.4 6.5 8.3 6.5 8.2 6C8 5.6 7.6 5.5 6.6 5.6C5.6 5.7 5.5 5.9 5.7 6.6C5.9 7.5 5.8 7.6 4.7 7.5L3.8 7.5L3.7 7.7C3.6 7.8 3.6 8 3.6 8.9C3.6 10.4 3.6 10.4 4.8 10.4C5.7 10.4 5.8 10.5 5.7 11.3C5.6 11.6 5.7 11.7 6.2 12C6.9 12.3 7.3 12.4 7.7 12.2ZM3 11.4C3.2 11.3 3.2 11.1 3 10.9C2.9 10.8 2.8 10.8 2.7 10.9C2.5 11.2 2.7 11.6 3 11.4ZM11.3 11.4C11.5 11.3 11.4 10.8 11.2 10.8C10.9 10.9 10.8 11.2 11 11.4C11.1 11.4 11.2 11.5 11.3 11.4Z"/></g></svg>
